<?xml version="1.0" encoding="UTF-8"?>
<svg id="Layer_1" data-name="Layer 1" xmlns="http://www.w3.org/2000/svg" viewBox="0 0 526.21 355">
  <defs>
    <style>
      .cls-1 {
        fill: #b03f32;
      }

      .cls-2 {
        fill: #dcb76e;
      }

      .cls-3 {
        fill: #63c7b4;
      }
    </style>
  </defs>
  <path class="cls-2" d="M390.43,353.6c-2.44-.29-7.93,1.14-8.85-1.64.76-5.67-1.66-34.55.3-37.33,1.4-2,7.57-1.16,9.63.48,2.9,2.31,12.91,23.07,14.41,23.53,2.28.38,1.36-1,1.49-2.48.36-4.21.17-9.7.05-14.02-.06-2.14-1.46-5.23-.97-6.8.9-2.88,9.91-1.92,9.91-.14v36.91c0,2.03-8.47,2.11-10.56.58s-9.74-16.4-11.99-19.95c-.89-1.41-1.78-3.49-3.41-4.08v24.94Z"/>
  <path class="cls-2" d="M129.6,312.94c18.35-3.1,26.99,7.61,25.21,25.19-1.51,14.85-16.58,20.55-29.32,14.35-14.81-7.21-12.62-36.71,4.11-39.54ZM142.56,321.97c-2.2-1.84-6.94-2.51-9.75-1.88-13.68,3.07-10.41,33.71,7.62,26.6,8.12-3.21,8.06-19.78,2.14-24.72Z"/>
  <path class="cls-2" d="M368.4,333.66c0,11.55-9.37,20.9-20.92,20.9s-20.92-9.36-20.92-20.9,9.37-20.9,20.92-20.9,20.92,9.36,20.92,20.9ZM345.25,319.89c-12.18,2.33-11.06,24.41-1.8,27.28,19.38,6,20.7-30.9,1.8-27.28Z"/>
  <path class="cls-2" d="M453.04,321.97c-3.41-3.99-13.9-2.06-12.6,3.02,1.46,5.67,22.12,2.22,23.78,15.24,2.4,18.92-28.44,17.36-32.4,7.36-.94-2.38,1.62-2.13-.78-4.99s5.7-2.58,7.69-2.03c.63.17,1.09,3.14,2.55,4.62,6.76,6.91,20.21-.76,11.78-5.78-5.85-3.49-19.31-2.03-21.48-11.45-4.47-19.4,30.91-20.53,31.56-3.56.11,2.97-5.15,2.7-7.12,2.08-2.71-.85-1.99-3.36-2.97-4.5Z"/>
  <path class="cls-2" d="M92.15,325.45c-.71-.52-.79-2.99-2.24-4.25-3.9-3.38-13.21-.62-11.9,3.84,1.23,4.21,19.53,3.33,22.97,12.02,8.52,21.53-34.01,24.83-32.02,3.56,9.88-2,6.83,2.43,11.01,5.47,4.55,3.31,15.41,1.56,14.02-4.85-6.86-5.02-24.45-3.78-24.96-15.16-.64-14.52,20.87-17.45,28.33-9.35.91.99,3.71,7.41,3.49,8.36-.57,2.41-7.54,1.21-8.71.35Z"/>
  <path class="cls-2" d="M216.72,313.7v22.45c0,.44,1.31,8.1,1.49,8.49,1.28,2.78,7.03,3.61,9.79,2.78.91-.28,4.7-3.97,4.7-4.29v-29.43h8.99v31.42c0,4.19-7.52,8.83-11.57,9.39-12.54,1.73-20.17-1.19-21.36-14.39-.44-4.95-.83-19.53-.02-23.93.72-3.88,4.95-2.24,7.99-2.49Z"/>
  <path class="cls-2" d="M287.6,313.7v7.99s-11.98,0-11.98,0v31.92h-8.99v-31.92c-7.91.02-12.43,2.07-10.98-7.98h31.95Z"/>
  <path class="cls-2" d="M179.78,346.62h18.97v6.98h-27.95l-.92-38.28c.81-2.8,9.91-1.94,9.91-.12v31.42Z"/>
  <rect class="cls-2" x="303.58" y="313.7" width="7.99" height="39.9"/>
  <path class="cls-3" d="M464.31,170.04v42.9h15.97v-41.4c0-.11,1.39-1.5,1.5-1.5h23.96c.11,0,1.5,1.39,1.5,1.5v108.74c0,.11-1.39,1.5-1.5,1.5h-23.96c-.11,0-1.5-1.39-1.5-1.5v-41.4h-15.97v42.9h-25.46c-.11,0-1.5-1.39-1.5-1.5v-108.74c0-.11,1.39-1.5,1.5-1.5h25.46Z"/>
  <path class="cls-3" d="M405.91,212.94c-3.57-1.1.76-15.97-3.48-18.47-1.84-1.08-9.46-.75-11.33.43-1.55.98-1.56,3.85-1.7,5.52-.79,9.47-1.49,44.75.25,52.7,1.72,7.81,14.76,4.79,14.76,2.21v-14.96c0-.11,1.39-1.5,1.5-1.5h22.96c.11,0,1.5,1.39,1.5,1.5v25.94c0,5.47-8.91,13.43-14.16,14.78-5.83,1.51-28.75,1.42-35.26.68-10.56-1.2-16.75-11.62-17.51-21.41-1.8-23.11,1.43-48.51.04-71.87,1.25-8.08,6.88-17.14,15.56-18.37,6.95-.98,28.78-.95,35.77,0s15.56,8.39,15.56,15.38v25.94c0,.11-1.39,1.5-1.5,1.5-4.66,0-19.9.94-22.96,0Z"/>
  <path class="cls-3" d="M356.49,170.04v25.44c0,3.55-19.81.45-22.46.41-2.99-.05-5.56,1.14-8.48,1.08v16.96h28.95v23.94h-28.95v18.95h30.95v24.94h-55.91v-111.73h55.91Z"/>
  <rect class="cls-1" y="292.75" width="507.29" height="9.98"/>
  <path class="cls-3" d="M274.62,281.77h-23.46c-.11,0-1.5-1.39-1.5-1.5v-85.29c-9.67-.26-19.3.12-28.96.53-.86.04-3.03.48-2.97-1.03.03-.72,8.39-8.98,9.57-10.73.26-.38-.16-1.5.34-2.24,2.55-3.81,4.74-7.83,7.54-11.47h57.9c2.77,0,.55,5.59.59,6.59.14,3.48,1.72,14.7.41,17.36-2.35,4.78-15.25.32-17.85,1.06-1.09.31-1.55,1.36-1.62,2.43v84.29Z"/>
  <path class="cls-3" d="M374.46,84.25c9.98-.16,36.55-4.94,41.7,5.72,2.05,4.24,2.16,23.02-.74,26.73-1.67,2.12-5.76,2.78-7.01,5.45,13.7-1.43,13.04,26.41,8.47,32.94-.81,1.15-6.77,5.98-7.97,5.98h-34.44v-76.81ZM390.43,115.18c13.76,2.93,16.95-21.36,0-16.96v16.96ZM390.43,129.14v16.46c0,4.78,9.36,2.35,11.25-1.73,3.87-8.35-1.3-17.49-11.25-14.73Z"/>
  <path class="cls-3" d="M337.26,83.49c4.76-.8,17.59-.77,22.28.2,4.97,1.04,7.15,3.64,8.65,8.32,2.37,7.39,2.3,47.54,1.17,56.47-.68,5.36-3.78,11.18-9.6,12.35-3.84.78-19.67.78-23.5,0-4.57-.93-8.33-5.22-9.27-9.69-1.72-8.19-1.57-47.42-.36-56.33.82-5.99,4.58-10.3,10.63-11.32ZM343.75,145.86c2.25,2.25,8.31,1.28,8.75-2.25v-43.9c-1.72-3.93-9.17-4.52-9.88,1.08-1.18,9.28-.95,30.3-.15,39.87.13,1.55.17,4.09,1.28,5.2Z"/>
  <path class="cls-3" d="M421.38,161.07l10.42-76.88c1.48-2.19,21.92-.24,25.94-.99l13.56,77.87h-17.97c-1.97-8.89.71-16.38-11.5-13.98-4.32.85-2.85,10.42-4.48,13.98h-15.97ZM449.34,134.13c1.16-1.16-2.62-23.53-3.49-26.93-1.83,1.16-1.2,2.88-1.52,4.47-1.5,7.37-2.14,15-2.98,22.46h7.99Z"/>
  <path class="cls-3" d="M287.6,110.19h-14.48c-2.73,0-.73-9.38-1.64-10.83-.66-1.06-6.27-1.28-7.85-1.14v46.39c0,1.57,6.86,2.81,7.85-.14.33-1,.55-10.94.15-11.34-.31-.3-3.89.2-5,0v-14.96h20.97l.62,28.26c-.75,8.25-3.12,13.64-12.1,14.64-3.81.42-17.3.55-20.52-.45-6.37-1.97-8.54-10.16-8.97-15.97-.92-12.37-1.14-34.77,0-46.97.51-5.45,5.57-12.73,10.73-14.21,2.5-.72,15.69-.61,18.78-.24,4.03.49,11.46,5.56,11.46,9.5v17.46Z"/>
  <path class="cls-3" d="M309.57,83.25v60.85c2.16.3,13.98-1.01,13.98,1.5v15.46h-29.45c-.11,0-1.5-1.39-1.5-1.5v-74.82c0-.11,1.39-1.5,1.5-1.5h15.47Z"/>
  <path class="cls-3" d="M491.26,83.25l.14,59.22c1.22,3.71,15.83-.26,15.83,3.13v15.46h-31.95v-77.81h15.97Z"/>
  <path class="cls-1" d="M242.18,74.27c-1.42-.41-6.77-11.88-8.46-14.49C198.51,5.25,125.28-6.6,74.48,34.39c-49.38,39.84-51.99,122.65-3.99,164.55,25.49,22.25,58.23,34.86,92.31,27.97.75.66-5.64,10.16-7.69,10.76-3.2.94-17.56.45-21.64.08C50.19,230.21,2.41,138.07,38.84,63.62,62.07,16.14,124.08-11.39,175.14,4.54c4.56,1.42,13.08,4.77,19.29,7.71,22.74,10.76,41,30.74,53.73,52.05h278.04v237.43c0,.48-8.99,1.36-8.99-.5V74.27H242.18Z"/>
  <path class="cls-2" d="M243.9,118.32c0,55.72-45.2,100.88-100.96,100.88s-100.96-45.17-100.96-100.88S87.18,17.44,142.94,17.44s100.96,45.17,100.96,100.88ZM140.84,23.4c-1.92-1.98-13.92,6.96-12.97,10.96h12.98s-.01-10.96-.01-10.96ZM158.82,34.36c-2.69-5.04-6.33-11.61-12.97-10.97v10.98s12.97-.02,12.97-.02ZM176.79,34.36c-4.72-5.64-11.8-9.08-18.95-10.47,2.44,1.66,5.13,8.87,6.97,9.98,2.47,1.49,8.88-.01,11.98.49ZM126.86,25.4c-2.53-2.28-15.74,5.53-16.97,8.96,8.38,1.27,14.13-.79,16.97-8.96ZM73.96,52.33c-2.03,2.45-6.13,5.68-4.99,8.98-6.04-2.79-12.81,17.15-11.98,17.95l13.97,1c.03,2.1-1,3.78-1,3.99-3.03.62-14.16-.92-15.83.14s-6.69,25.93-6.13,29.79h26.96c.36,0-1.35-5.54,3.49-5.05,4.33.44.18,6.34,5.49,5.05.06,1.66-.04,3.33,0,4.99-.76-.12-2.81-.39-3.06.54-.2,9.86.36,19.78,3.2,29.26,3.81,2.44,22.92-4.53,20.83,5.12h-18.97c.32,7.75,4.12,14.6,5.99,21.95h20.97l-1.99-11.97c1.4-.19,6.98-.26,6.98,1.49v25.44c-3.85.63-1.07-2.28-1.07-3.56,0-.48-1.95-.34-1.97-.97-.03-.69,2.29-5.44-.45-5.44h-19.47c2.37,3.17,3.2,8.16,5,11.26.38.65,1.47.85,1.96,1.47.79,1.02,1.82,3.78,2.23,4.03,3.18,1.89,14.79-3.17,13.77,4.19l-7.98.5c2.1,2.38,15.76,12.13,17.96,10.47l-2-2.97c6.23-1.52,9.14,4.47,14.97,4.97-.33-1.99.47-12.51.01-12.97-.38-.38-7.41.29-8.99,0-2.34-7.24,7.58-2.56,8.99-3.98.41-.41-.31-9.2-.01-10.98h5s0,10.98,0,10.98h14.48c1.55,0,6.28-14.32,5.49-16.96h-16.97v-4.99h18.97c.42-3.4,5.36-18.44,4.9-20.37-.85-3.51-9.31.42-8.87-3.04.86-6.87,8.46-2,9.97-3.51.41-.41-.31-9.19,0-10.97,5.81,1.26,5.84,6.09,4.98,10.97,1.85,1.93,22.8-4.29,19.97,4.99h-20.97l-3.99,21.95h20.47c3.22-3.99,3.54-11.02,5.73-15.23.79-1.53,1.4-2.28,3.25-1.72,4.27,1.29-3.16,16.37-2.48,16.94,4.4-.42,6.67.02,5.99,4.99-2.12.45-7.42-.72-8.83.17-.83.52-7.11,15.14-10.14,16.79,3.05-.32,7.16.78,9.97-.5,1.62-.74,10.3-9.05,12.05-10.95,1.11-1.21.74-3.23.95-3.5.1-.13,2.11-.28,3.04-1.4,13.9-16.7,20.36-32.83,22.91-54.46.88-7.44.58-9.72,0-16.96-.43-5.39-.75-10.68-2-15.96-.75-3.18-2.43-5.17-3-6.98-2.88-9.22-4.18-16.46-10.95-24.52-1.05-1.25-2.56-1.07-3.03-1.42-.11-.08.46-1.73-.65-2.02-4.18-1.09-12.56.84-17.32.03l2,12.97c-1.41-.16-3.11.26-4.41.05-.67-.11-2.57-11.33-3.58-13.03h-19.97c2.49,3.52,1.94,16.82,3.43,19.02,1.23,1.82,7.24.62,9.55.93v2.99c-.33.09-.83,1.75-1.74,1.95-1.54.35-5.94-.27-6.25.04-2.56,2.52,5.75,22.07-3.5,25.93-2.04.85-1.41-1.38-1.48-2.47-.56-7.76-.78-15.68-1-23.46h-26.96v29.93h27.95v4.99h-27.95v15.96c-1.31.33-4.99-.19-4.99-1.5v-14.47c-11.63-.18-23.32.24-34.94,0-.06-1.19-.24-3.12.44-4.03,1.68-2.28,29.55-.25,34.51-.95-1.2-8.58,1.58-21.39.06-29.39-.27-1.42-3.97,1.09-3.1-3.08.52-2.47,2.78-2.04,3.06-3.15.32-1.26.23-6.35.02-7.84-.33-2.4-1.9-3.65-2.04-4.43-.15-.83,0-2.05,0-2.99h6.99s0,15.96,0,15.96h25.96c-.75-6.49-1.44-14.27-4.49-19.95h-15.47c-1.4-8.26,9.61-4.01,14.97-4.99l-4.88-14.37-16.09-.6c-.05,2.32.07,4.67,0,6.99-1.63.14-3.38-.21-4.99,0v-6.99s-35.46,0-35.46,0c-2.93.53-1.85,2.11-2.47,3.01s-1.7,2.63-2,2.99c-1.81,2.23-4.83,4.95-6.99,6.98-1.33,0-2.66,0-3.99,0,.21-4.7,6.51-7.75,7.98-11.49.91-2.31-4.62-1.64-5.54-1.54-5.93.65-14.56,8.38-18.41,13.03ZM190.76,54.32c-.16-3.27-7.38-14.07-9.67-14.78-3.48-1.07-9.43.37-13.29-.18l5.49,14.96h17.47ZM212.73,54.32c-3.71-8.43-15.59-17.4-24.95-14.47,3.39,1.1,8.61,14.47,9.48,14.47h15.47ZM74.95,119.17h-26.96c-.47,4.73,2.84,28.56,5.97,30.44,3.96,2.39,18.55-2.05,23.97-.52l-2.99-29.92ZM79.95,154.08h-23.96c1.05,8.2,8.51,14.22,10.98,21.95h18.97l-5.99-21.95ZM88.43,181.02c-3.36-1.05-11.46.77-15.47,0-.43,1.74.72,1.99,1.49,3,2.06,2.69,11.97,12.09,14.74,13.2,1.59.64,9.59,2.12,8.71-.72-.27-.87-8.6-15.21-9.47-15.48ZM191.76,181.02h-18.47c-1.85,1.67-6.14,16.34-5.49,16.95,3.86-.55,9.79.88,13.29-.18,1.98-.6,11.68-15.87,10.67-16.77ZM104.9,205.95l-5.99-3.98c.78,3.07,2.81,4.19,5.99,3.98ZM157.81,201.97h-11.98s.01,12.96.01,12.96c6.85-.73,11.29-6.49,11.97-12.96ZM175.78,201.97c-2.86.47-8.72-.92-10.99.48-.57.35-7.45,11.02-6.97,11.48,2.74-.51,5.7-1.98,8.11-3.36,1.12-.64,11.38-7.26,9.85-8.61ZM187.77,201.98c-1.54-1.73-9.71,3.52-7.98,4.97.82.69,7.73-3.03,7.98-4.97ZM106.4,205.96v1c.65-.33.65-.67,0-1Z"/>
  <path class="cls-3" d="M102.91,42.35c4.05.83,29.86-1.1,30.95,0,.32.32-.24,4.76,0,5.99,2.67-.58,4.04-1.62,6.98-1.99,1.62-.21,3.36.14,4.99,0-.06,2.07.43,11.55,0,11.96-1.62,1.55-7.01-3.02-6.98,4.99,0,.95-.15,2.16,0,2.99-12.4.99-6.08-1.05-8.13-7.34-1.17-3.58-9.6-.79-12.34-.84-3.08-.06-14.3-2.35-16.04.14-.55.79-.9,12.58-.44,13.04.43.44,8.59-.44,8.99,0,.82.89-2.14,7.83,5.99,5.99.55-3.64-1.84-12.41,2.7-13.77,10.01-3,6.04,5.79,8.22,7.34,1.68,1.2,6.77.07,9.06.43,2.1,14.94-4.96,7.58-9.06,10.42-1.92,1.33-.45,7.08-.93,7.55-.37.36-4.63-.37-5-.01-.4.38.41,6.6.01,6.99s-5.63-.39-6-.01c-1.74,1.78,2.55,19.51-6.98,15.97-.27-1.48.37-7.63,0-7.99-.49-.49-12.69-.29-13.55.94-.78,1.12-.78,11.97,0,13.1,1.14,1.63,8.09.88,10.55.93.42,8.39,5.68,3.1,6.85,6.62.41,1.24.37,5.45.14,6.88-.56,3.52-7.23.35-8.95-1.07-2.16-1.79-2.89-5.28-4.02-5.96-1.93-1.17-5.11,0-7.33-.65-1.75-.52-3.31-4.93-8.66-5.81-.04-1.66.06-3.33,0-4.99-.05-1.48-.43-7.33-1.11-7.87-.62-.5-6.83.22-7.73-1.27-.51-.85.1-3.14-.66-4.81-.58-1.27-2.78-1.99-3.29-3.71-.3-1.01-1.18-10.59-1.2-12.27,0-.21,1.03-1.89,1-3.99-.06-4.72.76-12.34-.01-16.49-.38-2.02-1.93-2.32-1.98-2.47-1.14-3.3,2.96-6.52,4.99-8.98h15.97c1.33,0,2.66,0,3.99,0,5.98-.04,12,.03,17.98,0v-4.99c-2.88.77-5.5,1.24-8.53,1.01s-2.58.46-2.46-3c.3-.37,1.38-2.12,2-2.99Z"/>
  <path class="cls-3" d="M234.69,94.23c1.24,5.29,1.57,10.57,2,15.96-1.2.27-4.81-.68-5.01.58-.37,2.33-.41,11.57-.02,13.83.19,1.11,4.46-.34,5.03,2.55-2.56,21.63-9.01,37.76-22.91,54.46-.94,1.12-2.94,1.27-3.04,1.4-2.51.54-2.63-1.86-2.89-3.56-.72-4.63-.42-20.55-2.56-22.46-.83-.74-2.54-.78-2.54-.91v-15.96c-7.42-1.07-20.66,3.21-25.01-4.44-1.29-2.27-1.58-20.98-.74-23.79.57-1.92,11.28-11.27,13.29-11.66,1.75-.34,18.79-.74,19.45-.02.22.24-.54,5.99,1.5,5.99h23.46v-5.99c-11.12,1.81-11.09-7.78,0-5.98Z"/>
  <path class="cls-3" d="M217.72,61.31c.46.36,1.98.17,3.03,1.42,6.77,8.06,8.07,15.3,10.95,24.52.72,3.85-4.06.72-5.55,2.94-1.03,1.53.46,5.04-2.07,5.9-5.87,1.99-3.79-3.58-7.81-5.89-8.49-4.89-2.01,5.43-2.55,6.03-2.85.53-2.66-3.15-4.65-3.82-1.03-.35-9.97-.54-10.33-.17s.38,4.62.01,5c-.45.47-10.98-.35-12.99,0v-8.99s10.99,0,10.99,0v-13.97c1.69-.28,9.6.39,9.99,0,2.49-2.49-6.45-16.82,10.98-12.97Z"/>
  <path class="cls-3" d="M186.77,79.26c0-2.99,0-6,0-8.98l8.01.58c-.34,1.83.4,10.99-.01,11.4-.46.45-6.43-.44-7.99,0v-2.99Z"/>
  <path class="cls-3" d="M136.85,129.14c.41.41-.42,7.57,0,7.99,1.42,1.42,11.76-3.91,8.99,7.98h15.97c-.27,3.52,1.95,8.05.05,11.32-.69,1.19-5.04.49-5.04,2.15v14.47c-16.76-3.46-8.84,8.85-10.98,10.98-.43.42-7.57-.43-8-.01s.45,8.55.01,8.99c-.37.37-7.4-.27-8.99,0v13.97c-2.02.47-8.99-.06-8.99-2.49v-44.39h-10.98v-21.95c1.36-.23,6.66.34,6.99,0,.38-.38-.96-8.98,1.49-8.98,2.79,0,18.78-.69,19.47,0Z"/>
</svg>